<?xml version="1.0" encoding="UTF-8"?>
<svg xmlns="http://www.w3.org/2000/svg" width="1200pt" height="1200pt" version="1.1" viewBox="0 0 1200 1200">
  <path d="m599.86 0c-330.93 0-599.86 268.93-599.86 599.86 0 330.93 268.93 600.14 599.86 600.14 330.93 0 600.14-269.22 600.14-600.14 0-330.93-269.22-599.86-600.14-599.86zm0 75c38.617 0 76.195 4.4297 112.43 12.305l-25.195 62.77h-199.59c-5.8594-0.070313-11.652 1.2344-16.918 3.8086l-149.78 75.07c-5.918 2.8906-10.969 7.2852-14.648 12.746l-74.707 112.64c-4.1172 6.1328-6.3359 13.344-6.3711 20.73v150.07c0 9.8398 3.8672 19.281 10.766 26.297l37.648 37.645c7.082 6.9727 16.645 10.844 26.586 10.77h89.137l23.215 46.508v141.21c0 5.7656 1.3281 11.457 3.8828 16.625l75.074 150c3.1328 6.2617 7.9531 11.523 13.922 15.188 5.9648 3.6602 12.84 5.582 19.844 5.5391h149.71c7.0117 0.054688 13.902-1.8555 19.883-5.5195s10.816-8.9336 13.953-15.207l74.707-150c2.6562-5.1445 4.0859-10.836 4.1758-16.625v-201.86l54.273-27.102c7.1836-3.6055 13.016-9.4219 16.645-16.598 3.625-7.1719 4.8516-15.32 3.4961-23.246l-30.395-181.35h40.137l28.195 99.098v50.977c-0.035156 9.9961 3.918 19.594 10.984 26.664 7.0703 7.0664 16.668 11.02 26.664 10.98h112.43c8.1133-0.09375 15.977-2.8164 22.414-7.7617l40.207-30.176c7.9258 36.316 12.379 73.914 12.379 112.65 0 290.39-234.75 525.14-525.14 525.14-290.39 0-524.86-234.75-524.86-525.14 0-290.39 234.46-524.86 524.86-524.86zm184.5 33.84c140.11 52.484 251.38 162.74 305.12 302.2l-51.926 39.109h-62.625v-18.82c0.035157-3.4648-0.40625-6.9141-1.3164-10.254l-37.648-131.25c-2.2031-7.8672-6.9141-14.801-13.418-19.746-6.5039-4.9453-14.445-7.6289-22.617-7.6484h-112.35c-11.062-0.042969-21.578 4.7969-28.738 13.227-7.1602 8.4336-10.23 19.594-8.3945 30.5l32.957 197.68-50.098 25.195c-6.2188 3.1094-11.449 7.8867-15.109 13.797-3.6602 5.9102-5.6055 12.723-5.6172 19.676v216.21l-60.645 121.21h-103.86l-60.57-121.21v-141.21c0.035156-5.8398-1.293-11.609-3.8828-16.848l-37.645-75.07c-3.1562-6.1758-7.9609-11.355-13.883-14.961-5.9219-3.6094-12.73-5.5039-19.664-5.4766h-96.824l-15.527-15.82v-122.9l63.133-94.922 133.16-66.43h216.21c7.5039 0.007812 14.836-2.2383 21.051-6.4414 6.2148-4.2031 11.027-10.176 13.812-17.145z" fill="#58b946" fill-rule="evenodd"></path>
</svg>
